<svg width="28" height="22" viewBox="0 0 28 22" fill="none" xmlns="http://www.w3.org/2000/svg">
<path d="M9.37628 12.5181H12.0013V15.1431C12.0013 15.3774 12.1419 15.5181 12.3763 15.5181H14.6263C14.8138 15.5181 15.0013 15.3774 15.0013 15.1431V12.5181H17.6263C17.8138 12.5181 18.0013 12.3774 18.0013 12.1431V9.89307C18.0013 9.70557 17.8138 9.51807 17.6263 9.51807H15.0013V6.89307C15.0013 6.70557 14.8138 6.51807 14.6263 6.51807H12.3763C12.1419 6.51807 12.0013 6.70557 12.0013 6.89307V9.51807H9.37628C9.14191 9.51807 9.00128 9.70557 9.00128 9.89307V12.1431C9.00128 12.3774 9.14191 12.5181 9.37628 12.5181ZM24.7513 0.518066H2.25128C0.985659 0.518066 0.00128365 1.54932 0.00128365 2.76807V19.2681C0.00128365 20.5337 0.985659 21.5181 2.25128 21.5181H24.7513C25.97 21.5181 27.0013 20.5337 27.0013 19.2681V2.76807C27.0013 1.54932 25.97 0.518066 24.7513 0.518066ZM4.50128 19.2681H2.53253C2.34503 19.2681 2.25128 19.1743 2.25128 18.9868V3.04932C2.25128 2.90869 2.34503 2.76807 2.53253 2.76807H4.50128V19.2681ZM20.2513 19.2681H6.75128V2.76807H20.2513V19.2681ZM24.7513 18.9868C24.7513 19.1743 24.6107 19.2681 24.47 19.2681H22.5013V2.76807H24.47C24.6107 2.76807 24.7513 2.90869 24.7513 3.04932V18.9868Z" fill="white"/>
</svg>
