<svg width="39" height="32" viewBox="0 0 39 32" fill="none" xmlns="http://www.w3.org/2000/svg">
<g filter="url(#filter0_d)">
<path d="M27.4922 15C29.9297 15 31.9922 12.9844 31.9922 10.5C31.9922 8.0625 29.9297 6 27.4922 6C25.0078 6 22.9922 8.0625 22.9922 10.5C22.9922 12.9844 25.0078 15 27.4922 15ZM27.4922 8.25C28.7109 8.25 29.7422 9.28125 29.7422 10.5C29.7422 11.7656 28.7109 12.75 27.4922 12.75C26.2266 12.75 25.2422 11.7656 25.2422 10.5C25.2422 9.28125 26.2266 8.29688 27.4922 8.25ZM34.1953 17.9062C33.3984 16.6875 32.0391 16.0312 30.5859 16.0312C30.1172 16.0781 29.6484 16.125 29.2266 16.2656C28.6641 16.4531 28.0547 16.5 27.4453 16.5C26.8828 16.5 26.2734 16.4531 25.7109 16.2656C25.2891 16.125 24.8203 16.0312 24.3516 16.0312C22.8984 16.0312 21.5391 16.6875 20.7422 17.9062C20.2734 18.6094 19.9922 19.4531 19.9922 20.3906V22.125C19.9922 23.2031 20.7891 24 21.8672 24H33.1172C34.1484 24 34.9922 23.2031 34.9922 22.125V20.3906C34.9922 19.4531 34.6641 18.6094 34.1953 17.9062ZM32.7422 21.75H22.2422V20.3906C22.2422 19.9219 22.3828 19.5 22.6172 19.125C22.9453 18.6094 23.6016 18.2812 24.3516 18.2812C24.5859 18.2812 24.8203 18.3281 25.0547 18.4219C25.8516 18.6562 26.6484 18.75 27.4453 18.75C28.2891 18.75 29.0859 18.6562 29.8828 18.4219C30.1172 18.3281 30.3516 18.3281 30.5859 18.3281V18.2812C31.3359 18.2812 31.9922 18.6094 32.3203 19.125C32.5547 19.5 32.6953 19.9219 32.6953 20.3906H32.7422V21.75ZM11.9297 10.5H10.0547C9.72656 10.5 9.49219 10.7812 9.49219 11.0625V12.9375C9.49219 13.2656 9.72656 13.5 10.0547 13.5H11.9297C12.2109 13.5 12.4922 13.2656 12.4922 12.9375V11.0625C12.4922 10.7812 12.2109 10.5 11.9297 10.5ZM11.9297 15H10.0547C9.72656 15 9.49219 15.2812 9.49219 15.5625V17.4375C9.49219 17.7656 9.72656 18 10.0547 18H11.9297C12.2109 18 12.4922 17.7656 12.4922 17.4375V15.5625C12.4922 15.2812 12.2109 15 11.9297 15ZM11.9297 19.5H10.0547C9.72656 19.5 9.49219 19.7812 9.49219 20.0625V21.9375C9.49219 22.2656 9.72656 22.5 10.0547 22.5H11.9297C12.2109 22.5 12.4922 22.2656 12.4922 21.9375V20.0625C12.4922 19.7812 12.2109 19.5 11.9297 19.5ZM16.4297 15H14.5547C14.2266 15 13.9922 15.2812 13.9922 15.5625V17.4375C13.9922 17.7656 14.2266 18 14.5547 18H16.4297C16.7109 18 16.9922 17.7656 16.9922 17.4375V15.5625C16.9922 15.2812 16.7109 15 16.4297 15ZM16.4297 10.5H14.5547C14.2266 10.5 13.9922 10.7812 13.9922 11.0625V12.9375C13.9922 13.2656 14.2266 13.5 14.5547 13.5H16.4297C16.7109 13.5 16.9922 13.2656 16.9922 12.9375V11.0625C16.9922 10.7812 16.7109 10.5 16.4297 10.5ZM21.4922 15.2812V6C21.4922 5.20312 20.7891 4.5 19.9922 4.5H19.2422V1.5C19.2422 0.703125 18.5391 0 17.7422 0H8.74219C7.89844 0 7.24219 0.703125 7.24219 1.5V4.5H6.49219C5.64844 4.5 4.99219 5.20312 4.99219 6V23.25C4.99219 23.6719 5.32031 24 5.74219 24H6.49219C6.86719 24 7.24219 23.6719 7.24219 23.25V6.75H9.49219V2.25H16.9922V6.75H19.2422V17.5312C19.2891 17.3438 19.3828 17.2031 19.4766 17.0625C19.9922 16.3125 20.6953 15.7031 21.4922 15.2812ZM16.4297 19.5H14.5547C14.2266 19.5 13.9922 19.7812 13.9922 20.0625V21.9375C13.9922 22.2656 14.2266 22.5 14.5547 22.5H16.4297C16.7109 22.5 16.9922 22.2656 16.9922 21.9375V20.0625C16.9922 19.7812 16.7109 19.5 16.4297 19.5ZM13.9922 6.75H15.2109C15.3516 6.75 15.4922 6.65625 15.4922 6.46875V5.53125C15.4922 5.39062 15.3516 5.25 15.2109 5.25H13.9922V4.03125C13.9922 3.89062 13.8516 3.75 13.7109 3.75H12.7734C12.5859 3.75 12.4922 3.89062 12.4922 4.03125V5.25H11.2734C11.0859 5.25 10.9922 5.39062 10.9922 5.53125V6.46875C10.9922 6.65625 11.0859 6.75 11.2734 6.75H12.4922V7.96875C12.4922 8.15625 12.5859 8.25 12.7734 8.25H13.7109C13.8516 8.25 13.9922 8.15625 13.9922 7.96875V6.75Z" fill="white"/>
</g>
<defs>
<filter id="filter0_d" x="0.992188" y="0" width="38" height="32" filterUnits="userSpaceOnUse" color-interpolation-filters="sRGB">
<feFlood flood-opacity="0" result="BackgroundImageFix"/>
<feColorMatrix in="SourceAlpha" type="matrix" values="0 0 0 0 0 0 0 0 0 0 0 0 0 0 0 0 0 0 127 0" result="hardAlpha"/>
<feOffset dy="4"/>
<feGaussianBlur stdDeviation="2"/>
<feComposite in2="hardAlpha" operator="out"/>
<feColorMatrix type="matrix" values="0 0 0 0 0 0 0 0 0 0 0 0 0 0 0 0 0 0 0.25 0"/>
<feBlend mode="normal" in2="BackgroundImageFix" result="effect1_dropShadow"/>
<feBlend mode="normal" in="SourceGraphic" in2="effect1_dropShadow" result="shape"/>
</filter>
</defs>
</svg>
